<?xml version="1.0" encoding="UTF-8"?>
<svg xmlns="http://www.w3.org/2000/svg" version="1.1" viewBox="0 0 357 312.5">
  <defs>
    <style>
      .cls-1 {
        fill: #fff;
      }

      .cls-2 {
        fill: none;
        stroke: #00502f;
        stroke-width: 3.5px;
      }

      .cls-3 {
        fill: #f37321;
      }

      .cls-4 {
        fill: #00502f;
      }
    </style>
  </defs>
  <!-- Generator: Adobe Illustrator 28.7.1, SVG Export Plug-In . SVG Version: 1.2.0 Build 142)  -->
  <g>
    <g id="Layer_1">
      <path class="cls-1" d="M227.6,25.35l.18,95.38c0,6.11,0,24.7-46.82,24.78h-4.4s-4.4,0-4.4,0c-46.82-.08-46.82-18.67-46.82-24.78l.18-95.38H60.98l.05,109.7c0,30.35,85.07,32.71,111.15,32.71h8.76c26.08,0,111.14-2.36,111.14-32.71l.06-109.7h-64.54Z"/>
      <path class="cls-4" d="M232.58,120.74l.02-90.73h54.74s-.06,101.41-.06,105.04c0,19.91-54.65,27.9-106.33,27.9,0-2.51.02-8.67.02-12.64,25.87-.04,51.62-5.51,51.62-29.58Z"/>
      <path class="cls-3" d="M120.54,120.74l-.02-90.73h-54.74s.06,101.41.06,105.04c0,19.91,54.66,27.9,106.34,27.9,0-2.51-.02-8.67-.02-12.64-25.86-.04-51.62-5.51-51.62-29.58Z"/>
      <line class="cls-2" x1="11.01" y1="196.05" x2="343.5" y2="196.05"/>
      <g>
        <path class="cls-3" d="M69.36,269.03c0,6.89,1.52,9.21,8.63,9.29v3.12h-21.04v-3.12c7.33-.07,8.71-2.47,8.71-9.29v-33.08c0-2.83-.94-3.48-3.84-3.48h-4.28v-3.41h18.14l14.07,40.04,13.64-40.04h17.7v3.41h-3.84c-2.9,0-3.77.65-3.77,3.48v38.6c0,2.83.87,3.48,3.77,3.48h3.84v3.41h-23.5v-3.41h4.35c2.9,0,3.85-.65,3.85-3.48v-40.84l-16.25,47.73h-2.83l-17.34-47.73v35.33Z"/>
        <path class="cls-3" d="M126.52,278.03h3.92c2.97,0,3.92-.73,3.92-3.48v-38.6c0-2.76-.94-3.48-3.92-3.48h-3.92v-3.41h23.65v3.41h-3.92c-2.97,0-3.84.73-3.84,3.48v38.6c0,2.76.87,3.48,3.84,3.48h3.92v3.41h-23.65v-3.41Z"/>
        <path class="cls-3" d="M177.52,228.19l18.5,46.21c1.16,2.83,2.03,3.77,5.01,3.77.44,0,.94-.02,1.45-.02v3.28h-21.69v-3.48h2.76c3.05,0,4.42-.22,4.42-1.89,0-.58-.22-1.45-.65-2.54l-3.34-9.14h-19.52l-2.25,5.66c-.65,1.67-1.02,3.41-1.02,4.35,0,2.32,1.81,3.56,5.3,3.56h1.81v3.48h-18.72v-3.41h.58c4.28,0,5.73-1.74,7.47-6.17l17.05-43.67h2.83ZM174.04,239.65l-8.27,21.04h16.9l-8.63-21.04Z"/>
        <path class="cls-3" d="M213.57,269.03c0,6.89,1.52,9.21,8.63,9.29v3.12h-21.04v-3.23c7.33-.07,8.71-2.35,8.71-9.17v-33.08c0-2.83-.94-3.48-3.84-3.48h-4.28v-3.41h18.14l14.08,40.04,13.64-40.04h17.7v3.41h-3.85c-2.9,0-3.77.65-3.77,3.48v38.6c0,2.83.87,3.48,3.77,3.48h3.85v3.41h-23.5v-3.41h4.35c2.9,0,3.84-.65,3.84-3.48v-40.84l-16.25,47.73h-2.83l-17.34-47.73v35.33Z"/>
        <path class="cls-3" d="M270.73,278.03h3.92c2.97,0,3.92-.73,3.92-3.48v-38.6c0-2.76-.94-3.48-3.92-3.48h-3.92v-3.41h23.65v3.41h-3.92c-2.98,0-3.85.73-3.85,3.48v38.6c0,2.76.87,3.48,3.85,3.48h3.92v3.41h-23.65v-3.41Z"/>
      </g>
    </g>
  </g>
</svg>